<?xml version="1.0" encoding="UTF-8" standalone="no"?>
<!-- Created with Inkscape (http://www.inkscape.org/) -->

<svg
   xmlns:dc="http://purl.org/dc/elements/1.1/"
   xmlns:cc="http://creativecommons.org/ns#"
   xmlns:rdf="http://www.w3.org/1999/02/22-rdf-syntax-ns#"
   xmlns:svg="http://www.w3.org/2000/svg"
   xmlns="http://www.w3.org/2000/svg"
   xmlns:xlink="http://www.w3.org/1999/xlink"
   xmlns:sodipodi="http://sodipodi.sourceforge.net/DTD/sodipodi-0.dtd"
   xmlns:inkscape="http://www.inkscape.org/namespaces/inkscape"
   id="svg3039"
   version="1.1"
   inkscape:version="0.48.1 r9760"
   width="170"
   height="170"
   sodipodi:docname="icon.svg"
   inkscape:export-filename="/home/gordo/PROJEKTA/luneburg/calibre_wordpress_plugin/images/icon.png"
   inkscape:export-xdpi="105.88"
   inkscape:export-ydpi="105.88">
  <metadata
     id="metadata3045">
    <rdf:RDF>
      <cc:Work
         rdf:about="">
        <dc:format>image/svg+xml</dc:format>
        <dc:type
           rdf:resource="http://purl.org/dc/dcmitype/StillImage" />
        <dc:title></dc:title>
      </cc:Work>
    </rdf:RDF>
  </metadata>
  <defs
     id="defs3043">
    <linearGradient
       inkscape:collect="always"
       id="linearGradient4044">
      <stop
         style="stop-color:#ffffff;stop-opacity:1;"
         offset="0"
         id="stop4046" />
      <stop
         style="stop-color:#ffffff;stop-opacity:0;"
         offset="1"
         id="stop4048" />
    </linearGradient>
    <linearGradient
       inkscape:collect="always"
       id="linearGradient3934">
      <stop
         style="stop-color:#d45500;stop-opacity:1;"
         offset="0"
         id="stop3936" />
      <stop
         style="stop-color:#d45500;stop-opacity:0;"
         offset="1"
         id="stop3938" />
    </linearGradient>
    <linearGradient
       inkscape:collect="always"
       id="linearGradient3859">
      <stop
         style="stop-color:#ff8230;stop-opacity:1"
         offset="0"
         id="stop3861" />
      <stop
         style="stop-color:#d45500;stop-opacity:0;"
         offset="1"
         id="stop3863" />
    </linearGradient>
    <linearGradient
       id="linearGradient3821">
      <stop
         style="stop-color:#d25400;stop-opacity:0"
         offset="0"
         id="stop3823" />
      <stop
         style="stop-color:#ffaaaa;stop-opacity:0;"
         offset="1"
         id="stop3825" />
    </linearGradient>
    <linearGradient
       inkscape:collect="always"
       xlink:href="#linearGradient3859"
       id="linearGradient3865"
       x1="-95.868134"
       y1="-10.208093"
       x2="-9.1370306"
       y2="109.61987"
       gradientUnits="userSpaceOnUse" />
    <linearGradient
       inkscape:collect="always"
       xlink:href="#linearGradient3859-1"
       id="linearGradient3865-9"
       x1="-52.474316"
       y1="40.343472"
       x2="-9.1370306"
       y2="109.61987"
       gradientUnits="userSpaceOnUse" />
    <linearGradient
       inkscape:collect="always"
       id="linearGradient3859-1">
      <stop
         style="stop-color:#ff8230;stop-opacity:1"
         offset="0"
         id="stop3861-4" />
      <stop
         style="stop-color:#d45500;stop-opacity:0;"
         offset="1"
         id="stop3863-3" />
    </linearGradient>
    <linearGradient
       inkscape:collect="always"
       xlink:href="#linearGradient3934"
       id="linearGradient3940"
       x1="194.73309"
       y1="48.683277"
       x2="169.39502"
       y2="12.526689"
       gradientUnits="userSpaceOnUse"
       gradientTransform="translate(-91.672598,5.160142)" />
    <linearGradient
       inkscape:collect="always"
       xlink:href="#linearGradient3859"
       id="linearGradient3942"
       x1="-54.37722"
       y1="40.711742"
       x2="-191.60143"
       y2="-38.718861"
       gradientUnits="userSpaceOnUse" />
    <linearGradient
       inkscape:collect="always"
       xlink:href="#linearGradient4044"
       id="linearGradient4050"
       x1="173.09608"
       y1="19.928825"
       x2="230.3203"
       y2="96.79715"
       gradientUnits="userSpaceOnUse"
       gradientTransform="matrix(0.95433702,0,0,0.95433702,-83.718537,6.364502)" />
    <filter
       id="filter4304"
       inkscape:label="Drop shadow"
       width="1.5"
       height="1.5"
       x="-0.25"
       y="-0.25"
       color-interpolation-filters="sRGB">
      <feGaussianBlur
         id="feGaussianBlur4306"
         in="SourceAlpha"
         stdDeviation="2.5"
         result="blur" />
      <feColorMatrix
         id="feColorMatrix4308"
         result="bluralpha"
         type="matrix"
         values="1 0 0 0 0 0 1 0 0 0 0 0 1 0 0 0 0 0 0.5 0 " />
      <feOffset
         id="feOffset4310"
         in="bluralpha"
         dx="3"
         dy="4.5"
         result="offsetBlur" />
      <feMerge
         id="feMerge4312"
         result="fbSourceGraphic">
        <feMergeNode
           id="feMergeNode4314"
           in="offsetBlur" />
        <feMergeNode
           id="feMergeNode4316"
           in="SourceGraphic" />
      </feMerge>
      <feColorMatrix
         result="fbSourceGraphicAlpha"
         in="fbSourceGraphic"
         values="0 0 0 -1 0 0 0 0 -1 0 0 0 0 -1 0 0 0 0 1 0"
         id="feColorMatrix4318" />
      <feGaussianBlur
         id="feGaussianBlur4320"
         in="fbSourceGraphicAlpha"
         stdDeviation="2.5"
         result="blur" />
      <feColorMatrix
         id="feColorMatrix4322"
         result="bluralpha"
         type="matrix"
         values="1 0 0 0 0 0 1 0 0 0 0 0 1 0 0 0 0 0 0.5 0 " />
      <feOffset
         id="feOffset4324"
         in="bluralpha"
         dx="3"
         dy="4.5"
         result="offsetBlur" />
      <feMerge
         id="feMerge4326">
        <feMergeNode
           id="feMergeNode4328"
           in="offsetBlur" />
        <feMergeNode
           id="feMergeNode4330"
           in="fbSourceGraphic" />
      </feMerge>
    </filter>
    <linearGradient
       inkscape:collect="always"
       xlink:href="#linearGradient3859"
       id="linearGradient4415"
       gradientUnits="userSpaceOnUse"
       x1="-54.37722"
       y1="40.711742"
       x2="-191.60143"
       y2="-38.718861" />
    <linearGradient
       inkscape:collect="always"
       xlink:href="#linearGradient3859"
       id="linearGradient4423"
       gradientUnits="userSpaceOnUse"
       x1="-54.37722"
       y1="40.711742"
       x2="-191.60143"
       y2="-38.718861" />
    <linearGradient
       inkscape:collect="always"
       xlink:href="#linearGradient3859"
       id="linearGradient4425"
       gradientUnits="userSpaceOnUse"
       x1="-95.868134"
       y1="-10.208093"
       x2="-9.1370306"
       y2="109.61987" />
    <linearGradient
       inkscape:collect="always"
       xlink:href="#linearGradient3934"
       id="linearGradient4427"
       gradientUnits="userSpaceOnUse"
       gradientTransform="translate(-91.672598,5.160142)"
       x1="194.73309"
       y1="48.683277"
       x2="169.39502"
       y2="12.526689" />
    <linearGradient
       inkscape:collect="always"
       xlink:href="#linearGradient4044"
       id="linearGradient4429"
       gradientUnits="userSpaceOnUse"
       gradientTransform="matrix(0.95433702,0,0,0.95433702,-83.718537,6.364502)"
       x1="173.09608"
       y1="19.928825"
       x2="230.3203"
       y2="96.79715" />
  </defs>
  <sodipodi:namedview
     pagecolor="#ffffff"
     bordercolor="#666666"
     borderopacity="1"
     objecttolerance="10"
     gridtolerance="10"
     guidetolerance="10"
     inkscape:pageopacity="0"
     inkscape:pageshadow="2"
     inkscape:window-width="1687"
     inkscape:window-height="1061"
     id="namedview3041"
     showgrid="false"
     inkscape:zoom="3.5125"
     inkscape:cx="157.85388"
     inkscape:cy="71.933531"
     inkscape:window-x="180"
     inkscape:window-y="16"
     inkscape:window-maximized="0"
     inkscape:current-layer="svg3039" />
  <g
     id="g4417"
     transform="translate(2.4820267,53.464922)">
    <path
       inkscape:export-ydpi="32.630001"
       inkscape:export-xdpi="32.630001"
       inkscape:export-filename="/home/gordo/PROJEKTA/luneburg/calibre_wordpress_plugin/images/icon.png"
       transform="translate(122.70462,-38.113879)"
       inkscape:transform-center-y="5.6736166"
       inkscape:transform-center-x="1.5569493"
       d="m -3.4193778,18.745407 c 2.94021647,2.13087 14.1904978,-4.864575 16.7497798,-2.300381 2.559281,2.564193 -4.3781367,13.664511 -2.283205,16.637926 2.094932,2.973414 15.283038,-0.08454 16.874596,3.18785 1.591558,3.272394 -9.350223,11.585793 -8.30474,15.056424 1.045482,3.470632 14.39153,5.420435 14.827463,9.022651 0.435933,3.602216 -12.032045,7.801105 -12.204056,11.422634 -0.172012,3.62153 11.950673,9.146763 11.196722,12.707402 -0.753951,3.56064 -13.984001,4.251723 -15.302707,7.635635 -1.318706,3.383912 8.637964,12.823732 6.789577,15.939222 -1.848387,3.11549 -15.3318639,-1.52883 -17.668037,1.25909 -2.3361732,2.78792 4.092374,15.18388 1.3206454,17.53304 -2.7717287,2.34917 -13.1114559,-6.50214 -16.2417666,-4.64975 -3.1303108,1.8524 -1.2690469,15.97118 -4.6348958,17.31126 -3.365848,1.34008 -11.152786,-10.44403 -14.718559,-9.71388 -3.565772,0.73015 -6.017165,14.2915 -9.635647,14.45778 -3.618481,0.16627 -6.870497,-12.73227 -10.472693,-13.17017 -3.602196,-0.43789 -10.683989,11.05233 -14.167573,10.04137 -3.483583,-1.01097 -2.70074,-14.64494 -5.954991,-16.24624 -3.254251,-1.6013 -13.431059,7.6814 -16.37917,5.56621 -2.94811,-2.11519 2.901094,-14.4433 0.331699,-16.99657 -2.569396,-2.55326 -15.60428,2.12038 -17.722674,-0.83057 -2.11839,-2.95095 7.318209,-12.907797 5.696598,-16.157908 -1.621611,-3.25011 -15.573098,-2.405972 -16.623488,-5.888016 -1.05038,-3.482043 11.29469,-9.841713 10.85579,-13.449236 -0.4389,-3.607523 -13.89034,-7.154059 -13.73697,-10.78773 0.15337,-3.633671 13.8536,-6.505022 14.59937,-10.050153 0.745766,-3.545132 -10.67714,-10.831576 -9.37398,-14.222876 1.30316,-3.3913 14.67091,-1.347477 16.538205,-4.45536 1.867295,-3.107883 -6.509799,-14.023515 -4.172282,-16.791925 2.337517,-2.76841 14.388858,3.612715 17.168372,1.27359 2.779513,-2.339126 -1.005805,-15.045825 2.125598,-16.9005931 3.131404,-1.8547681 12.321448,7.5190911 15.711448,6.2111411 3.39,-1.307951 3.37679,-14.6162058 6.928528,-15.367036 3.551738,-0.7508302 9.253884,11.5623888 12.887956,11.3967816 3.634071,-0.1656073 8.480618,-12.841112 12.081968,-12.3702039 3.60135,0.4709081 5.028882,13.8978184 8.502438,14.9410642 3.473557,1.0432461 11.8946334,-9.88007143 15.16421,-8.2897674 3.2695766,1.5903041 0.3062548,14.9064245 3.2464712,17.0372945 z"
       inkscape:randomized="0.005"
       inkscape:rounded="0.21"
       inkscape:flatsided="false"
       sodipodi:arg2="-0.78587005"
       sodipodi:arg1="-0.95121703"
       sodipodi:r2="75.090691"
       sodipodi:r1="61.975311"
       sodipodi:cy="69.323845"
       sodipodi:cx="-39.715302"
       sodipodi:sides="19"
       id="path3049"
       style="color:#000000;fill:url(#linearGradient4423);fill-opacity:1;stroke:#ff6600;stroke-width:1.5;stroke-opacity:1;marker:none;visibility:visible;display:inline;overflow:visible;filter:url(#filter4304);enable-background:accumulate"
       sodipodi:type="star" />
    <path
       inkscape:export-ydpi="32.630001"
       inkscape:export-xdpi="32.630001"
       inkscape:export-filename="/home/gordo/PROJEKTA/luneburg/calibre_wordpress_plugin/images/icon.png"
       sodipodi:type="star"
       style="opacity:0.90454544;color:#000000;fill:url(#linearGradient4425);fill-opacity:1;stroke:none;stroke-width:1.5;marker:none;visibility:visible;display:inline;overflow:visible;enable-background:accumulate"
       id="path3819"
       sodipodi:sides="19"
       sodipodi:cx="-39.715302"
       sodipodi:cy="69.323845"
       sodipodi:r1="61.975311"
       sodipodi:r2="75.090691"
       sodipodi:arg1="-0.95121703"
       sodipodi:arg2="-0.78587005"
       inkscape:flatsided="false"
       inkscape:rounded="0.21"
       inkscape:randomized="0.005"
       d="m -3.4193778,18.745407 c 2.94021647,2.13087 14.1904978,-4.864575 16.7497798,-2.300381 2.559281,2.564193 -4.3781367,13.664511 -2.283205,16.637926 2.094932,2.973414 15.283038,-0.08454 16.874596,3.18785 1.591558,3.272394 -9.350223,11.585793 -8.30474,15.056424 1.045482,3.470632 14.39153,5.420435 14.827463,9.022651 0.435933,3.602216 -12.032045,7.801105 -12.204056,11.422634 -0.172012,3.62153 11.950673,9.146763 11.196722,12.707402 -0.753951,3.56064 -13.984001,4.251723 -15.302707,7.635635 -1.318706,3.383912 8.637964,12.823732 6.789577,15.939222 -1.848387,3.11549 -15.3318639,-1.52883 -17.668037,1.25909 -2.3361732,2.78792 4.092374,15.18388 1.3206454,17.53304 -2.7717287,2.34917 -13.1114559,-6.50214 -16.2417666,-4.64975 -3.1303108,1.8524 -1.2690469,15.97118 -4.6348958,17.31126 -3.365848,1.34008 -11.152786,-10.44403 -14.718559,-9.71388 -3.565772,0.73015 -6.017165,14.2915 -9.635647,14.45778 -3.618481,0.16627 -6.870497,-12.73227 -10.472693,-13.17017 -3.602196,-0.43789 -10.683989,11.05233 -14.167573,10.04137 -3.483583,-1.01097 -2.70074,-14.64494 -5.954991,-16.24624 -3.254251,-1.6013 -13.431059,7.6814 -16.37917,5.56621 -2.94811,-2.11519 2.901094,-14.4433 0.331699,-16.99657 -2.569396,-2.55326 -15.60428,2.12038 -17.722674,-0.83057 -2.11839,-2.95095 7.318209,-12.907797 5.696598,-16.157908 -1.621611,-3.25011 -15.573098,-2.405972 -16.623488,-5.888016 -1.05038,-3.482043 11.29469,-9.841713 10.85579,-13.449236 -0.4389,-3.607523 -13.89034,-7.154059 -13.73697,-10.78773 0.15337,-3.633671 13.8536,-6.505022 14.59937,-10.050153 0.745766,-3.545132 -10.67714,-10.831576 -9.37398,-14.222876 1.30316,-3.3913 14.67091,-1.347477 16.538205,-4.45536 1.867295,-3.107883 -6.509799,-14.023515 -4.172282,-16.791925 2.337517,-2.76841 14.388858,3.612715 17.168372,1.27359 2.779513,-2.339126 -1.005805,-15.045825 2.125598,-16.9005931 3.131404,-1.8547681 12.321448,7.5190911 15.711448,6.2111411 3.39,-1.307951 3.37679,-14.6162058 6.928528,-15.367036 3.551738,-0.7508302 9.253884,11.5623888 12.887956,11.3967816 3.634071,-0.1656073 8.480618,-12.841112 12.081968,-12.3702039 3.60135,0.4709081 5.028882,13.8978184 8.502438,14.9410642 3.473557,1.0432461 11.8946334,-9.88007143 15.16421,-8.2897674 3.2695766,1.5903041 0.3062548,14.9064245 3.2464712,17.0372945 z"
       inkscape:transform-center-x="1.5569493"
       inkscape:transform-center-y="5.6736166"
       transform="matrix(0.9,0,0,0.9,118.68596,-31.148978)" />
    <path
       inkscape:export-ydpi="32.630001"
       inkscape:export-xdpi="32.630001"
       inkscape:export-filename="/home/gordo/PROJEKTA/luneburg/calibre_wordpress_plugin/images/icon.png"
       inkscape:connector-curvature="0"
       id="path3049-3"
       d="m 130.77412,7.107182 c -48.426658,0 -88.164298,37.16358 -92.249998,84.531248 0.13146,0.28348 0.33034,0.52093 0.5625,0.6875 2.94811,2.11519 13.12075,-7.1638 16.375,-5.5625 3.25425,1.6013 2.48517,15.20778 5.96875,16.21875 3.48358,1.01096 10.55406,-10.46914 14.15625,-10.03125 3.6022,0.43789 6.85027,13.35377 10.46875,13.1875 3.61848,-0.16627 6.09048,-13.7386 9.65625,-14.46875 3.56577,-0.73015 11.352898,11.05883 14.718748,9.71875 3.36585,-1.34008 1.49469,-15.46011 4.625,-17.3125 3.13031,-1.8524 13.47827,7.00541 16.25,4.65625 2.77173,-2.34917 -3.67992,-14.74333 -1.34375,-17.53125 2.33617,-2.78792 15.83911,1.83424 17.6875,-1.28125 1.84839,-3.11549 -8.1312,-12.55359 -6.8125,-15.9375 1.31871,-3.38391 14.55855,-4.064358 15.3125,-7.624998 0.75395,-3.56064 -11.35951,-9.09722 -11.1875,-12.71875 0.17201,-3.62153 12.62343,-7.80404 12.1875,-11.40625 -0.43593,-3.60222 -13.76702,-5.56062 -14.8125,-9.03125 -0.36916,-1.22547 0.77205,-3.06457 2.3125,-5.0625 -4.51947,-0.678 -9.16659,-1.03125 -13.875,-1.03125 z"
       style="color:#000000;fill:url(#linearGradient4427);fill-opacity:1;stroke:none;stroke-width:1.5;marker:none;visibility:visible;display:inline;overflow:visible;enable-background:accumulate" />
    <path
       inkscape:export-ydpi="32.630001"
       inkscape:export-xdpi="32.630001"
       inkscape:export-filename="/home/gordo/PROJEKTA/luneburg/calibre_wordpress_plugin/images/icon.png"
       inkscape:connector-curvature="0"
       id="path4024"
       d="m 90.967022,84.49869 c -6.78476,1.05562 -15.10126,0.67155 -21.56187,-0.99573 -23.52457,-6.07096 -40.02106,-26.8985 -40.42989,-51.044618 -0.4736,-27.97127 20.64416,-51.5738 48.52788,-54.2378 17.64037,-1.68536 35.265918,5.68094 46.524778,19.44424 8.63576,10.55671 12.85492,23.98626 11.91042,37.91084 -0.23683,3.49129 -1.33041,9.04065 -2.45767,12.47122 -4.78268,14.555138 -15.07584,25.998468 -29.21255,32.476848 -2.86547,1.31315 -10.112538,3.47892 -13.301098,3.975 z m 11.329548,-5.78687 c 18.10455,-7.68306 30.15812,-24.79185 31.2897,-44.412518 0.31719,-5.49967 -0.20668,-10.28672 -1.75348,-16.02335 -2.15366,-7.98754 -5.38947,-14.08413 -10.72323,-20.20411 -8.66499,-9.94221 -20.76964,-16.17448 -33.881818,-17.44459 -8.8961,-0.86172 -18.83916,0.94685 -27.05497,4.92113 -18.60264,8.99876 -30.16909,29.03243 -28.66092,49.64217 0.54879,7.49952 2.91257,15.200278 6.71943,21.890728 7.1902,12.6366 20.02915,21.77347 34.59426,24.61907 6.66963,1.30304 12.83044,1.30331 19.84454,8.4e-4 1.9095,-0.35459 7.532398,-2.10063 9.626488,-2.98937 z M 91.541792,76.65816 c -3.69859,0.61548 -8.90563,1.0485 -9.78783,0.81394 -0.27141,-0.0721 -0.0537,-4.16605 1.11006,-20.8794 0.79622,-11.434308 1.49308,-20.869068 1.5486,-20.966158 0.0555,-0.0971 5.47054,7.48228 12.03335,16.842978 l 11.932388,17.01949 -0.95375,0.65361 c -1.59947,1.09613 -4.5217,2.66178 -6.8271,3.65774 -2.150168,0.92891 -7.377338,2.57849 -9.055718,2.8578 z m -20.49895,-0.60029 c -4.56493,-1.21244 -8.06522,-2.70315 -12.28644,-5.23255 -8.07084,-4.83615 -14.10093,-11.64276 -18.26326,-20.61506 -0.68539,-1.477378 -1.24076,-3.179148 -2.20547,-6.757488 -1.43562,-5.32625 -1.82227,-8.20344 -1.70172,-12.67204 0.0625,-2.31729 0.36175,-5.79676 0.52631,-6.12027 0.0502,-0.0986 8.04037,11.15537 17.75606,25.00878 9.71569,13.853408 17.95158,25.587788 18.30199,26.076408 0.35039,0.48861 0.56678,0.9053 0.48083,0.92595 -0.086,0.0204 -1.25966,-0.25552 -2.6083,-0.61373 z M 115.17795,63.37489 c 0.0244,-0.22117 0.71804,-9.81357 1.54125,-21.316428 0.82322,-11.50285 1.58812,-21.94214 1.69978,-23.19839 0.49973,-5.62211 0.0249,-10.71405 -1.45859,-15.64203 -0.77608,-2.5783 -0.86541,-3.02677 -0.55146,-2.77424 0.69542,0.55964 3.82691,4.73402 5.15868,6.8767 10.65407,17.1413 8.83025,39.33913 -4.47818,54.503948 -0.90144,1.02719 -1.7103,1.88673 -1.79747,1.91009 -0.0872,0.0234 -0.13841,-0.13851 -0.11396,-0.35965 z M 78.538822,61.31916 c -0.40364,-0.5295 -28.61374,-43.032918 -28.64909,-43.164838 -0.0196,-0.0729 1.15123,-0.56646 2.60169,-1.09675 1.45048,-0.5303 2.78865,-1.12645 2.97371,-1.32481 0.77947,-0.83547 0.57143,-2.30725 -0.40593,-2.87152 -0.76627,-0.44241 -1.07418,-0.37462 -6.53657,1.43922 -2.02706,0.6731 -5.02878,1.55295 -6.67051,1.95521 l -2.98497,0.73135 1.10511,-2.74879 c 3.36545,-8.37093 9.49842,-15.89354 17.00441,-20.85733 5.02087,-3.32037 9.35899,-5.19009 15.16727,-6.53705 4.9752,-1.15377 9.14269,-1.49015 14.01334,-1.13109 4.73394,0.34899 11.33442,2.08572 15.789438,4.15458 l 1.77344,0.82356 -1.32701,0.50092 c -3.460888,1.30638 -5.441558,5.16684 -4.639748,9.04311 0.58718,2.83863 1.82234,4.60376 6.121528,8.74819 2.80819,2.70709 4.60442,4.87771 5.96934,7.21353 0.78563,1.34446 1.06691,2.10518 1.81894,4.91954 1.04933,3.92797 1.08567,4.626 0.74426,14.40511 -0.11881,3.40427 -0.27406,8.46269 -0.34492,11.24092 -0.0709,2.77824 -0.17775,5.142098 -0.23757,5.253038 -0.0598,0.11101 -6.48048,-9.406348 -14.268158,-21.149488 -7.78766,-11.74317 -14.22421,-21.44688 -14.30341,-21.56381 -0.0967,-0.14259 0.51487,-0.4419 1.85669,-0.90883 2.8642,-0.99669 3.73054,-1.44769 4.01703,-2.09117 0.35092,-0.78821 0.01,-1.85295 -0.76401,-2.38037 l -0.64024,-0.43673 -5.44283,1.75501 c -5.17364,1.6682 -10.61641,3.08282 -17.38425,4.51828 -2.41485,0.5122 -2.57244,0.57252 -2.87694,1.09983 -0.62841,1.08846 -0.1495,2.51638 0.95739,2.85447 0.26328,0.0804 1.66292,-0.0544 3.11035,-0.29967 l 2.63167,-0.44587 5.97505,8.51827 5.97505,8.51826 -0.95891,15.7967 c -0.5274,8.688188 -1.05418,15.671728 -1.17062,15.518988 z"
       style="fill:url(#linearGradient4429);fill-opacity:1" />
  </g>
</svg>
